HQ WEBrip

Format                                   : AVI
Format/Info                              : Audio Video Interleave
File size                                : 457 MiB
Duration                                 : 42mn 40s
Overall bit rate                         : 1 497 Kbps
Writing application                      : Lavf52.84.0
Writing library                          : VirtualDub build 32842/release

Video
ID                                       : 0
Format                                   : xvid
Codec ID                                 : xvid
Duration                                 : 42mn 40s
Bit rate                                 : 1 359 Kbps
Width                                    : 720 pixels
Height                                   : 400 pixels
Display aspect ratio                     : 16:9
Frame rate                               : 25.000 fps
Bits/(Pixel*Frame)                       : 0.189
Stream size                              : 415 MiB (91%)

Audio
ID                                       : 1
Format                                   : AC-3
Format/Info                              : Audio Coding 3
Mode extension                           : CM (complete main)
Format settings, Endianness              : Big
Codec ID                                 : 2000
Duration                                 : 42mn 40s
Bit rate mode                            : Constant
Bit rate                                 : 128 Kbps
Channel(s)                               : 2 channels
Channel positions                        : Front: L R
Sampling rate                            : 48.0 KHz
Bit depth                                : 16 bits
Compression mode                         : Lossy
Stream size                              : 39.1 MiB (9%)
Alignment                                : Aligned on interleaves
Interleave, duration                     : 32 ms (0.80 video frame)
Interleave, preload duration             : 512 ms

